<svg width="20" height="21" viewBox="0 0 20 21" fill="none" xmlns="http://www.w3.org/2000/svg">
<path fill-rule="evenodd" clip-rule="evenodd" d="M9.37359 3.41675C6.01913 3.41675 3.2998 6.13607 3.2998 9.49055C3.2998 12.845 6.01913 15.5643 9.37359 15.5643C12.728 15.5643 15.4473 12.845 15.4473 9.49055C15.4473 6.13607 12.728 3.41675 9.37359 3.41675ZM2.0498 9.49055C2.0498 5.44572 5.32877 2.16675 9.37359 2.16675C13.4184 2.16675 16.6973 5.44572 16.6973 9.49055C16.6973 13.5354 13.4184 16.8143 9.37359 16.8143C5.32877 16.8143 2.0498 13.5354 2.0498 9.49055Z" fill="#717784"/>
<path fill-rule="evenodd" clip-rule="evenodd" d="M13.9462 13.5398L18.6258 18.2072L17.7431 19.0922L13.0635 14.4248L13.9462 13.5398Z" fill="#717784"/>
</svg>
