<svg width="24" height="25" viewBox="0 0 24 25" fill="none" xmlns="http://www.w3.org/2000/svg">
<path d="M12 14C15.7266 14 18.75 10.9766 18.75 7.25C18.75 3.52344 15.7266 0.5 12 0.5C8.27344 0.5 5.25 3.52344 5.25 7.25C5.25 10.9766 8.27344 14 12 14ZM18 15.5H15.4172C14.3766 15.9781 13.2188 16.25 12 16.25C10.7812 16.25 9.62813 15.9781 8.58281 15.5H6C2.68594 15.5 0 18.1859 0 21.5V22.25C0 23.4922 1.00781 24.5 2.25 24.5H21.75C22.9922 24.5 24 23.4922 24 22.25V21.5C24 18.1859 21.3141 15.5 18 15.5Z" fill="#717784"/>
</svg>
